<svg width="21" height="19" viewBox="0 0 21 19" fill="none" xmlns="http://www.w3.org/2000/svg">
<path d="M1.75 0.75C1.05964 0.75 0.5 1.30964 0.5 2C0.5 2.69036 1.05964 3.25 1.75 3.25H15.5C16.1904 3.25 16.75 2.69036 16.75 2C16.75 1.30964 16.1904 0.75 15.5 0.75H1.75Z" fill="white"/>
<path d="M1.75 5.75C1.05964 5.75 0.5 6.30964 0.5 7C0.5 7.69036 1.05964 8.25 1.75 8.25H10.5C11.1904 8.25 11.75 7.69036 11.75 7C11.75 6.30964 11.1904 5.75 10.5 5.75H1.75Z" fill="white"/>
<path d="M1.75 10.75C1.05964 10.75 0.5 11.3096 0.5 12C0.5 12.6904 1.05964 13.25 1.75 13.25H6.75C7.44036 13.25 8 12.6904 8 12C8 11.3096 7.44036 10.75 6.75 10.75H1.75Z" fill="white"/>
<path d="M16.75 7C16.75 6.30964 16.1904 5.75 15.5 5.75C14.8096 5.75 14.25 6.30964 14.25 7L14.25 13.9822L12.6339 12.3661C12.1457 11.878 11.3543 11.878 10.8661 12.3661C10.378 12.8543 10.378 13.6457 10.8661 14.1339L14.6161 17.8839C14.8505 18.1183 15.1685 18.25 15.5 18.25C15.8315 18.25 16.1495 18.1183 16.3839 17.8839L20.1339 14.1339C20.622 13.6457 20.622 12.8543 20.1339 12.3661C19.6457 11.878 18.8543 11.878 18.3661 12.3661L16.75 13.9822L16.75 7Z" fill="white"/>
</svg>
