<svg width="26" height="26" viewBox="0 0 26 26" fill="none" xmlns="http://www.w3.org/2000/svg">
<path d="M1.75 1.75H4.25L4.75 4.25M6.75 14.25H19.25L24.25 4.25H4.75M6.75 14.25L4.75 4.25M6.75 14.25L3.88388 17.1161C3.09643 17.9036 3.65414 19.25 4.76777 19.25H19.25M19.25 19.25C17.8693 19.25 16.75 20.3693 16.75 21.75C16.75 23.1307 17.8693 24.25 19.25 24.25C20.6307 24.25 21.75 23.1307 21.75 21.75C21.75 20.3693 20.6307 19.25 19.25 19.25ZM9.25 21.75C9.25 23.1307 8.13071 24.25 6.75 24.25C5.36929 24.25 4.25 23.1307 4.25 21.75C4.25 20.3693 5.36929 19.25 6.75 19.25C8.13071 19.25 9.25 20.3693 9.25 21.75Z" stroke="#425486" stroke-opacity="0.7" stroke-width="2" stroke-linecap="round" stroke-linejoin="round"/>
</svg>
