<svg width="10" height="8" viewBox="0 0 10 8" fill="none" xmlns="http://www.w3.org/2000/svg">
<path fill-rule="evenodd" clip-rule="evenodd" d="M7.99999 0C7.66862 0 7.39999 0.223858 7.39999 0.5V1H6.79999C6.46862 1 6.19999 1.22386 6.19999 1.5C6.19999 1.77614 6.46862 2 6.79999 2H7.39999V2.5C7.39999 2.77614 7.66862 3 7.99999 3C8.33136 3 8.59999 2.77614 8.59999 2.5V2H9.19999C9.53136 2 9.79999 1.77614 9.79999 1.5C9.79999 1.22386 9.53136 1 9.19999 1H8.59999V0.5C8.59999 0.223858 8.33136 0 7.99999 0ZM7.99999 5C7.66862 5 7.39999 5.22386 7.39999 5.5V6H6.79999C6.46862 6 6.19999 6.22386 6.19999 6.5C6.19999 6.77614 6.46862 7 6.79999 7H7.39999V7.5C7.39999 7.77614 7.66862 8 7.99999 8C8.33136 8 8.59999 7.77614 8.59999 7.5V7H9.19999C9.53136 7 9.79999 6.77614 9.79999 6.5C9.79999 6.22386 9.53136 6 9.19999 6H8.59999V5.5C8.59999 5.22386 8.33136 5 7.99999 5Z" fill="#16BB55"/>
<path fill-rule="evenodd" clip-rule="evenodd" d="M3.80002 0C3.52778 0 3.28966 0.152741 3.22 0.372054L2.51247 2.59947L0.500185 3.56691C0.314451 3.6562 0.200019 3.82131 0.200019 4C0.200019 4.17869 0.31445 4.3438 0.500185 4.43309L2.51247 5.40054L3.22 7.62795C3.28966 7.84726 3.52778 8 3.80002 8C4.07226 8 4.31038 7.84726 4.38004 7.62795L5.08757 5.40053L7.09982 4.43309C7.28556 4.3438 7.39999 4.17869 7.39999 4C7.39999 3.82131 7.28556 3.6562 7.09982 3.56691L5.08757 2.59947L4.38004 0.372054C4.31038 0.152741 4.07226 0 3.80002 0Z" fill="#16BB55"/>
</svg>
